<svg id="037ab56f-1062-48d6-b82a-fee5e698b1df" data-name="Layer 1" xmlns="http://www.w3.org/2000/svg" viewBox="0 0 57.03 47"><defs><style>.\39 ae3aebb-d106-4824-a8fd-61c5f1df2058{fill:#fff;}</style></defs><title>freeDelivery</title><path class="9ae3aebb-d106-4824-a8fd-61c5f1df2058" d="M57.18,17.61A22.91,22.91,0,0,0,27.62,14.9a1.14,1.14,0,0,0-.28,1.57,1.11,1.11,0,0,0,1.55.29,20.7,20.7,0,0,1,6.88-3.16,14.63,14.63,0,0,0-1.26,1.88,32.18,32.18,0,0,0-3.43,11.08,1.12,1.12,0,1,0,2.21.33c.13-.93.29-1.84.48-2.72H47.84a48.73,48.73,0,0,1,1,8.93H45.7a1.13,1.13,0,0,0,0,2.26h3.12a48.71,48.71,0,0,1-1,8.92H42.32a1.13,1.13,0,0,0,0,2.26h5a27.6,27.6,0,0,1-1,3.07c-1.41,3.45-3.22,5.53-5,5.82h-.83C37.25,55,34.27,49,33.2,41a1.11,1.11,0,1,0-2.2.3,33,33,0,0,0,3.4,11.5,14.83,14.83,0,0,0,1.34,2,20.66,20.66,0,0,1-7.44-3.55,1.1,1.1,0,0,0-1.56.23A1.15,1.15,0,0,0,27,53.08,22.92,22.92,0,0,0,40.8,57.72h0q.8,0,1.59-.06a23,23,0,0,0,14.79-6.82,23.72,23.72,0,0,0,0-33.23ZM61.71,33.1H51.05a51.15,51.15,0,0,0-.94-8.93h9.15A21.3,21.3,0,0,1,61.71,33.1ZM34.33,21.91a23.68,23.68,0,0,1,2.11-5.3C37.77,14.28,39.32,13,40.8,13c1.93,0,3.92,2.14,5.44,5.85a28.31,28.31,0,0,1,1,3.07ZM48.3,18a18,18,0,0,0-2.47-4.37,20.8,20.8,0,0,1,9.78,5.6,22.15,22.15,0,0,1,2.26,2.7H49.59A32.92,32.92,0,0,0,48.3,18Zm7.31,31.26a20.72,20.72,0,0,1-9.74,5.56,17.85,17.85,0,0,0,2.43-4.33,32.92,32.92,0,0,0,1.29-3.93h8.28A22.15,22.15,0,0,1,55.61,49.24Zm3.65-5H50.11a51.14,51.14,0,0,0,.94-8.92H61.71A21.26,21.26,0,0,1,59.26,44.28Zm-22.4.33a1.14,1.14,0,0,0-.33.8,1.15,1.15,0,0,0,.33.8,1.1,1.1,0,0,0,1.57,0,1.15,1.15,0,0,0,.33-.8,1.14,1.14,0,0,0-.33-.8,1.1,1.1,0,0,0-.79-.33A1.11,1.11,0,0,0,36.86,44.61Zm-2.56-6a9.29,9.29,0,0,0,7.38-3.69,1.14,1.14,0,0,0,0-1.38,9.29,9.29,0,0,0-7.38-3.69h-4l-4.08-10a1.12,1.12,0,0,0-1-.69H20.94a1.12,1.12,0,0,0-1.11,1.13v9.52H15.76l-2.84-3.46a1.11,1.11,0,0,0-.86-.41h-4a1.13,1.13,0,0,0-1,1.69l3.68,6.56L7.09,40.78a1.13,1.13,0,0,0,1,1.69h4a1.11,1.11,0,0,0,.86-.41l2.84-3.46h4.07v9.53a1.12,1.12,0,0,0,1.11,1.13h4.21a1.11,1.11,0,0,0,1-.69l4.08-10ZM22.06,21.45h2.35l3.44,8.39H22.06ZM15.42,36.34H15.2a1.1,1.1,0,0,0-.8.41l-2.86,3.47H10l3-5.43a1.17,1.17,0,0,0,0-1.12l-3-5.43h1.57L14.4,31.7a1.1,1.1,0,0,0,.8.41H34.3a7.05,7.05,0,0,1,5,2.12,7.05,7.05,0,0,1-5,2.12Zm9,10.67H22.06V38.6h5.79ZM8.22,21.45A1.1,1.1,0,0,0,9,21.11a1.15,1.15,0,0,0,.32-.79,1.17,1.17,0,0,0-.32-.8,1.11,1.11,0,0,0-1.58,0,1.17,1.17,0,0,0-.32.8,1.15,1.15,0,0,0,.32.79A1.1,1.1,0,0,0,8.22,21.45Zm4.07,0H17a1.13,1.13,0,0,0,0-2.26H12.29a1.13,1.13,0,0,0,0,2.26ZM15.93,47H9.06a1.13,1.13,0,0,0,0,2.25h6.87a1.13,1.13,0,0,0,0-2.25Z" transform="translate(-6.94 -10.72)"/></svg>